<svg width="1280" height="720" viewBox="0 0 1280 720" fill="none" xmlns="http://www.w3.org/2000/svg">
<rect width="1280" height="720" fill="#FFFEF1"/>
<path d="M351.166 292C349.139 311.255 342.45 329.294 332.722 339.428C319.344 353.21 302.116 357.669 279.416 357.061C279.416 339.225 290.766 321.389 302.522 310.849C314.277 300.31 331.303 292.608 351.166 292Z" fill="#17181D"/>
<path d="M272.525 357.264C272.93 345.508 275.97 335.779 280.835 327.267C286.104 318.146 295.022 306.796 308.602 298.891C308.602 298.891 292.185 302.945 274.349 315.511C260.161 325.645 248 342.265 248 357.669L272.525 357.264Z" fill="#17181D"/>
<path d="M357.854 292C359.881 311.255 366.569 329.294 376.298 339.428C389.675 353.21 406.903 357.669 429.604 357.061C429.604 339.225 418.253 321.389 406.498 310.849C394.742 300.31 377.717 292.608 357.854 292Z" fill="#17181D"/>
<path d="M436.291 357.264C435.886 345.508 432.845 335.78 427.981 327.267C422.711 318.146 413.793 306.796 400.213 298.891C400.213 298.891 416.631 302.945 434.467 315.511C448.654 325.645 461.018 342.265 461.018 357.467L436.291 357.264Z" fill="#17181D"/>
<path d="M357.854 427.999C359.881 408.745 366.569 390.706 376.298 380.572C389.675 366.789 406.903 362.33 429.604 362.938C429.604 380.774 418.253 398.611 406.498 409.15C394.742 419.689 377.717 427.189 357.854 427.999Z" fill="#17181D"/>
<path d="M436.29 362.736C435.885 374.491 432.845 384.22 427.98 392.733C422.711 401.854 413.793 413.204 400.213 421.108C400.213 421.108 416.63 417.055 434.466 404.488C448.654 394.354 461.018 377.734 461.018 362.533L436.29 362.736Z" fill="#17181D"/>
<path d="M351.166 428C349.139 408.745 342.45 390.707 332.722 380.572C319.344 366.79 302.116 362.331 279.416 362.939C279.416 380.775 290.766 398.611 302.522 409.151C314.277 419.69 331.303 427.189 351.166 428Z" fill="#17181D"/>
<path d="M272.525 362.736C272.93 374.492 275.97 384.22 280.835 392.733C286.104 401.854 295.022 413.204 308.602 421.108C308.602 421.108 292.185 417.055 274.349 404.489C260.161 394.354 248 377.734 248 362.331L272.525 362.736Z" fill="#17181D"/>
<path d="M559.235 354.779C548.44 352.954 536.508 352.155 536.508 345.996C536.508 341.319 540.713 338.24 552.872 338.24C565.826 338.24 569.917 343.03 569.917 346.909H582.985C582.985 335.616 572.531 327.86 553.099 327.86C535.258 327.86 523.894 334.476 523.894 346.68C523.894 357.516 530.826 361.167 546.508 364.132C561.963 366.984 572.076 367.098 572.076 373.828C572.076 378.39 567.644 381.47 555.258 381.47C542.531 381.47 536.053 378.504 536.053 371.889H521.622C521.622 385.69 535.713 392.078 554.122 392.078C574.349 392.078 586.054 386.146 586.054 372.003C586.054 360.026 576.394 357.745 559.235 354.779Z" fill="#17181D"/>
<path d="M634.765 340.293V329.571H616.469V313.83H602.492V329.571H590.674V340.293H602.492V367.668C602.492 383.751 608.401 391.279 626.81 391.279C629.651 391.279 632.719 390.823 634.765 390.253V379.303C620.56 380.785 616.469 377.934 616.469 367.668V340.293H634.765Z" fill="#17181D"/>
<path d="M675.534 327.86C659.852 327.86 648.034 334.133 646.216 346.909H659.284C660.307 341.776 664.739 338.24 675.534 338.24C688.148 338.24 692.466 342.46 692.466 350.901V354.665C650.648 351.927 643.83 361.851 643.83 374.398C643.83 386.032 653.489 392.078 668.034 392.078C682.239 392.078 689.512 385.918 692.466 382.496V390.367H706.443V350.901C706.443 333.449 692.239 327.86 675.534 327.86ZM692.466 373.257C688.716 378.732 681.671 382.725 670.989 382.725C662.921 382.725 658.148 379.645 658.148 373.485C658.148 364.018 667.239 361.851 692.466 363.106V373.257Z" fill="#17181D"/>
<path d="M760.69 327.86C747.622 327.86 739.212 336.529 736.485 340.977V329.571H722.394V390.367H736.485V359.456C736.485 349.988 742.281 341.091 757.622 341.091C761.485 341.091 764.553 341.548 766.94 342.232H767.394V328.316C765.008 327.974 763.417 327.86 760.69 327.86Z" fill="#17181D"/>
<path d="M778.769 306.188V390.367H792.746V306.188H778.769Z" fill="#17181D"/>
<path d="M808.62 390.367H822.598V329.571H808.62V390.367ZM815.552 321.13C819.984 321.13 823.052 318.621 823.052 314.286C823.052 309.952 819.984 307.442 815.552 307.442C811.234 307.442 808.166 309.952 808.166 314.286C808.166 318.621 811.234 321.13 815.552 321.13Z" fill="#17181D"/>
<path d="M887.677 329.571V337.783C883.245 331.852 876.086 327.86 865.404 327.86C847.79 327.86 833.927 337.783 833.927 357.859C833.927 377.82 847.79 386.603 865.404 386.603C876.086 386.603 883.245 383.181 887.677 377.82V384.55C887.677 395.5 883.359 400.975 866.427 400.975C853.245 400.975 848.699 396.983 847.79 393.332H834.836C836.086 404.853 847.45 411.583 866.427 411.583C883.813 411.583 901.654 408.047 901.654 384.55V329.571H887.677ZM868.131 377.478C855.063 377.478 846.881 370.634 846.881 357.859C846.881 344.969 854.95 338.24 868.131 338.24C881.427 338.24 889.836 345.198 889.836 357.859C889.836 370.406 881.2 377.478 868.131 377.478Z" fill="#17181D"/>
<path d="M954.755 327.86C942.142 327.86 934.414 334.932 931.573 338.924V310.522H917.596V390.367H931.573V355.235C931.573 345.654 937.596 339.266 948.619 339.266C959.642 339.266 965.21 344.969 965.21 355.235V390.367H979.187V351.015C979.187 336.871 970.551 327.86 954.755 327.86Z" fill="#17181D"/>
<path d="M1032.38 340.293V329.571H1014.09V313.83H1000.11V329.571H988.29V340.293H1000.11V367.668C1000.11 383.751 1006.02 391.279 1024.43 391.279C1027.27 391.279 1030.34 390.823 1032.38 390.253V379.303C1018.18 380.785 1014.09 377.934 1014.09 367.668V340.293H1032.38Z" fill="#17181D"/>
</svg>
